<svg width="138" height="138" viewBox="0 0 138 138" fill="none" xmlns="http://www.w3.org/2000/svg">
<circle cx="54" cy="54" r="4" transform="rotate(90 54 54)" fill="#C83434"/>
<circle cx="54" cy="74" r="4" transform="rotate(90 54 74)" fill="#C83434"/>
<circle cx="54" cy="94" r="4" transform="rotate(90 54 94)" fill="#C83434"/>
<circle cx="54" cy="114" r="4" transform="rotate(90 54 114)" fill="#C83434"/>
<circle cx="54" cy="34" r="4" transform="rotate(90 54 34)" fill="#C83434"/>
<circle cx="54" cy="14" r="4" transform="rotate(90 54 14)" fill="#C83434"/>
<circle cx="74" cy="54" r="4" transform="rotate(90 74 54)" fill="#C83434"/>
<circle cx="74" cy="74" r="4" transform="rotate(90 74 74)" fill="#C83434"/>
<circle cx="74" cy="94" r="4" transform="rotate(90 74 94)" fill="#C83434"/>
<circle cx="74" cy="114" r="4" transform="rotate(90 74 114)" fill="#C83434"/>
<circle cx="74" cy="34" r="4" transform="rotate(90 74 34)" fill="#C83434"/>
<circle cx="74" cy="14" r="4" transform="rotate(90 74 14)" fill="#C83434"/>
<circle cx="94" cy="54" r="4" transform="rotate(90 94 54)" fill="#C83434"/>
<circle cx="94" cy="74" r="4" transform="rotate(90 94 74)" fill="#C83434"/>
<circle cx="94" cy="94" r="4" transform="rotate(90 94 94)" fill="#C83434"/>
<circle cx="94" cy="114" r="4" transform="rotate(90 94 114)" fill="#C83434"/>
<circle cx="94" cy="34" r="4" transform="rotate(90 94 34)" fill="#C83434"/>
<circle cx="94" cy="14" r="4" transform="rotate(90 94 14)" fill="#C83434"/>
<circle cx="114" cy="54" r="4" transform="rotate(90 114 54)" fill="#C83434"/>
<circle cx="114" cy="74" r="4" transform="rotate(90 114 74)" fill="#C83434"/>
<circle cx="114" cy="94" r="4" transform="rotate(90 114 94)" fill="#C83434"/>
<circle cx="114" cy="114" r="4" transform="rotate(90 114 114)" fill="#C83434"/>
<circle cx="114" cy="34" r="4" transform="rotate(90 114 34)" fill="#C83434"/>
<circle cx="114" cy="14" r="4" transform="rotate(90 114 14)" fill="#C83434"/>
<circle cx="34" cy="54" r="4" transform="rotate(90 34 54)" fill="#C83434"/>
<circle cx="34" cy="74" r="4" transform="rotate(90 34 74)" fill="#C83434"/>
<circle cx="34" cy="94" r="4" transform="rotate(90 34 94)" fill="#C83434"/>
<circle cx="34" cy="114" r="4" transform="rotate(90 34 114)" fill="#C83434"/>
<circle cx="34" cy="34" r="4" transform="rotate(90 34 34)" fill="#C83434"/>
<circle cx="34" cy="14" r="4" transform="rotate(90 34 14)" fill="#C83434"/>
<circle cx="14" cy="54" r="4" transform="rotate(90 14 54)" fill="#C83434"/>
<circle cx="14" cy="74" r="4" transform="rotate(90 14 74)" fill="#C83434"/>
<circle cx="14" cy="94" r="4" transform="rotate(90 14 94)" fill="#C83434"/>
<circle cx="14" cy="114" r="4" transform="rotate(90 14 114)" fill="#C83434"/>
<circle cx="14" cy="34" r="4" transform="rotate(90 14 34)" fill="#C83434"/>
<circle cx="14" cy="14" r="4" transform="rotate(90 14 14)" fill="#C83434"/>
<rect width="4" height="10" transform="matrix(0.707107 -0.707107 -0.707107 -0.707107 121.121 23.9497)" fill="#C83434"/>
<rect width="4" height="10" transform="matrix(0.707107 -0.707107 -0.707107 -0.707107 121.121 43.9497)" fill="#C83434"/>
<rect width="4" height="10" transform="matrix(0.707107 -0.707107 -0.707107 -0.707107 121.121 63.9497)" fill="#C83434"/>
<rect width="4" height="10" transform="matrix(0.707107 -0.707107 -0.707107 -0.707107 101.121 23.9497)" fill="#C83434"/>
<rect width="4" height="10" transform="matrix(0.707107 -0.707107 -0.707107 -0.707107 101.121 43.9497)" fill="#C83434"/>
<rect width="4" height="10" transform="matrix(0.707107 -0.707107 -0.707107 -0.707107 101.121 63.9497)" fill="#C83434"/>
<rect width="4" height="10" transform="matrix(0.707107 -0.707107 -0.707107 -0.707107 81.1213 23.9497)" fill="#C83434"/>
<rect width="4" height="10" transform="matrix(0.707107 -0.707107 -0.707107 -0.707107 81.1213 43.9497)" fill="#C83434"/>
<rect width="4" height="10" transform="matrix(0.707107 -0.707107 -0.707107 -0.707107 81.1213 63.9497)" fill="#C83434"/>
<rect width="4" height="10" transform="matrix(0.707107 -0.707107 -0.707107 -0.707107 121.121 83.9497)" fill="#C83434"/>
<rect width="4" height="10" transform="matrix(0.707107 -0.707107 -0.707107 -0.707107 121.121 103.95)" fill="#C83434"/>
<rect width="4" height="10" transform="matrix(0.707107 -0.707107 -0.707107 -0.707107 121.121 123.95)" fill="#C83434"/>
<rect width="4" height="10" transform="matrix(0.707107 -0.707107 -0.707107 -0.707107 101.121 83.9497)" fill="#C83434"/>
<rect width="4" height="10" transform="matrix(0.707107 -0.707107 -0.707107 -0.707107 101.121 103.95)" fill="#C83434"/>
<rect width="4" height="10" transform="matrix(0.707107 -0.707107 -0.707107 -0.707107 101.121 123.95)" fill="#C83434"/>
<rect width="4" height="10" transform="matrix(0.707107 -0.707107 -0.707107 -0.707107 81.1213 83.9497)" fill="#C83434"/>
<rect width="4" height="10" transform="matrix(0.707107 -0.707107 -0.707107 -0.707107 81.1213 103.95)" fill="#C83434"/>
<rect width="4" height="10" transform="matrix(0.707107 -0.707107 -0.707107 -0.707107 81.1213 123.95)" fill="#C83434"/>
<rect width="4" height="10" transform="matrix(0.707107 -0.707107 -0.707107 -0.707107 61.1213 83.9497)" fill="#C83434"/>
<rect width="4" height="10" transform="matrix(0.707107 -0.707107 -0.707107 -0.707107 61.1213 103.95)" fill="#C83434"/>
<rect width="4" height="10" transform="matrix(0.707107 -0.707107 -0.707107 -0.707107 61.1213 123.95)" fill="#C83434"/>
<rect width="4" height="10" transform="matrix(0.707107 -0.707107 -0.707107 -0.707107 41.1213 83.9497)" fill="#C83434"/>
<rect width="4" height="10" transform="matrix(0.707107 -0.707107 -0.707107 -0.707107 41.1213 103.95)" fill="#C83434"/>
<rect width="4" height="10" transform="matrix(0.707107 -0.707107 -0.707107 -0.707107 41.1213 123.95)" fill="#C83434"/>
<rect width="4" height="10" transform="matrix(0.707107 -0.707107 -0.707107 -0.707107 21.1213 83.9497)" fill="#C83434"/>
<rect width="4" height="10" transform="matrix(0.707107 -0.707107 -0.707107 -0.707107 21.1213 103.95)" fill="#C83434"/>
<rect width="4" height="10" transform="matrix(0.707107 -0.707107 -0.707107 -0.707107 21.1213 123.95)" fill="#C83434"/>
<rect width="4" height="10" transform="matrix(0.707107 -0.707107 -0.707107 -0.707107 61.1213 23.9497)" fill="#C83434"/>
<rect width="4" height="10" transform="matrix(0.707107 -0.707107 -0.707107 -0.707107 61.1213 43.9497)" fill="#C83434"/>
<rect width="4" height="10" transform="matrix(0.707107 -0.707107 -0.707107 -0.707107 61.1213 63.9497)" fill="#C83434"/>
<rect width="4" height="10" transform="matrix(0.707107 -0.707107 -0.707107 -0.707107 41.1213 23.9497)" fill="#C83434"/>
<rect width="4" height="10" transform="matrix(0.707107 -0.707107 -0.707107 -0.707107 41.1213 43.9497)" fill="#C83434"/>
<rect width="4" height="10" transform="matrix(0.707107 -0.707107 -0.707107 -0.707107 41.1213 63.9497)" fill="#C83434"/>
<rect width="4" height="10" transform="matrix(0.707107 -0.707107 -0.707107 -0.707107 21.1213 23.9497)" fill="#C83434"/>
<rect width="4" height="10" transform="matrix(0.707107 -0.707107 -0.707107 -0.707107 21.1213 43.9497)" fill="#C83434"/>
<rect width="4" height="10" transform="matrix(0.707107 -0.707107 -0.707107 -0.707107 21.1213 63.9497)" fill="#C83434"/>
<circle cx="124" cy="24" r="5" transform="rotate(90 124 24)" fill="#57ACDC"/>
<circle cx="124" cy="24" r="3" transform="rotate(90 124 24)" fill="#496989"/>
<circle cx="124" cy="44" r="5" transform="rotate(90 124 44)" fill="#57ACDC"/>
<circle cx="124" cy="44" r="3" transform="rotate(90 124 44)" fill="#496989"/>
<circle cx="104" cy="24" r="5" transform="rotate(90 104 24)" fill="#57ACDC"/>
<circle cx="104" cy="24" r="3" transform="rotate(90 104 24)" fill="#496989"/>
<circle cx="104" cy="44" r="5" transform="rotate(90 104 44)" fill="#57ACDC"/>
<circle cx="104" cy="44" r="3" transform="rotate(90 104 44)" fill="#496989"/>
<circle cx="84" cy="24" r="5" transform="rotate(90 84 24)" fill="#57ACDC"/>
<circle cx="84" cy="24" r="3" transform="rotate(90 84 24)" fill="#496989"/>
<circle cx="84" cy="44" r="5" transform="rotate(90 84 44)" fill="#57ACDC"/>
<circle cx="84" cy="44" r="3" transform="rotate(90 84 44)" fill="#496989"/>
<circle cx="44" cy="24" r="5" transform="rotate(90 44 24)" fill="#57ACDC"/>
<circle cx="44" cy="24" r="3" transform="rotate(90 44 24)" fill="#496989"/>
<circle cx="44" cy="44" r="5" transform="rotate(90 44 44)" fill="#57ACDC"/>
<circle cx="44" cy="44" r="3" transform="rotate(90 44 44)" fill="#496989"/>
<circle cx="24" cy="24" r="5" transform="rotate(90 24 24)" fill="#57ACDC"/>
<circle cx="24" cy="24" r="3" transform="rotate(90 24 24)" fill="#496989"/>
<circle cx="24" cy="44" r="5" transform="rotate(90 24 44)" fill="#57ACDC"/>
<circle cx="24" cy="44" r="3" transform="rotate(90 24 44)" fill="#496989"/>
<circle cx="24" cy="84" r="5" transform="rotate(90 24 84)" fill="#57ACDC"/>
<circle cx="24" cy="84" r="3" transform="rotate(90 24 84)" fill="#496989"/>
<circle cx="24" cy="104" r="5" transform="rotate(90 24 104)" fill="#57ACDC"/>
<circle cx="24" cy="104" r="3" transform="rotate(90 24 104)" fill="#496989"/>
<circle cx="24" cy="124" r="5" transform="rotate(90 24 124)" fill="#57ACDC"/>
<circle cx="24" cy="124" r="3" transform="rotate(90 24 124)" fill="#496989"/>
<circle cx="44" cy="84" r="5" transform="rotate(90 44 84)" fill="#57ACDC"/>
<circle cx="44" cy="84" r="3" transform="rotate(90 44 84)" fill="#496989"/>
<circle cx="44" cy="104" r="5" transform="rotate(90 44 104)" fill="#57ACDC"/>
<circle cx="44" cy="104" r="3" transform="rotate(90 44 104)" fill="#496989"/>
<circle cx="44" cy="124" r="5" transform="rotate(90 44 124)" fill="#57ACDC"/>
<circle cx="44" cy="124" r="3" transform="rotate(90 44 124)" fill="#496989"/>
<circle cx="84" cy="84" r="5" transform="rotate(90 84 84)" fill="#57ACDC"/>
<circle cx="84" cy="84" r="3" transform="rotate(90 84 84)" fill="#496989"/>
<circle cx="64" cy="84" r="5" transform="rotate(90 64 84)" fill="#57ACDC"/>
<circle cx="64" cy="84" r="3" transform="rotate(90 64 84)" fill="#496989"/>
<circle cx="64" cy="124" r="5" transform="rotate(90 64 124)" fill="#57ACDC"/>
<circle cx="64" cy="124" r="3" transform="rotate(90 64 124)" fill="#496989"/>
<circle cx="64" cy="64" r="5" transform="rotate(90 64 64)" fill="#57ACDC"/>
<circle cx="64" cy="64" r="3" transform="rotate(90 64 64)" fill="#496989"/>
<circle cx="64" cy="44" r="5" transform="rotate(90 64 44)" fill="#57ACDC"/>
<circle cx="64" cy="44" r="3" transform="rotate(90 64 44)" fill="#496989"/>
<circle cx="64" cy="24" r="5" transform="rotate(90 64 24)" fill="#57ACDC"/>
<circle cx="64" cy="24" r="3" transform="rotate(90 64 24)" fill="#496989"/>
<circle cx="44" cy="64" r="5" transform="rotate(90 44 64)" fill="#57ACDC"/>
<circle cx="44" cy="64" r="3" transform="rotate(90 44 64)" fill="#496989"/>
<circle cx="24" cy="64" r="5" transform="rotate(90 24 64)" fill="#57ACDC"/>
<circle cx="24" cy="64" r="3" transform="rotate(90 24 64)" fill="#496989"/>
<circle cx="84" cy="104" r="5" transform="rotate(90 84 104)" fill="#57ACDC"/>
<circle cx="84" cy="104" r="3" transform="rotate(90 84 104)" fill="#496989"/>
<circle cx="64" cy="104" r="5" transform="rotate(90 64 104)" fill="#57ACDC"/>
<circle cx="64" cy="104" r="3" transform="rotate(90 64 104)" fill="#496989"/>
<circle cx="84" cy="124" r="5" transform="rotate(90 84 124)" fill="#57ACDC"/>
<circle cx="84" cy="124" r="3" transform="rotate(90 84 124)" fill="#496989"/>
<circle cx="104" cy="84" r="5" transform="rotate(90 104 84)" fill="#57ACDC"/>
<circle cx="104" cy="84" r="3" transform="rotate(90 104 84)" fill="#496989"/>
<circle cx="104" cy="104" r="5" transform="rotate(90 104 104)" fill="#57ACDC"/>
<circle cx="104" cy="104" r="3" transform="rotate(90 104 104)" fill="#496989"/>
<circle cx="104" cy="124" r="5" transform="rotate(90 104 124)" fill="#57ACDC"/>
<circle cx="104" cy="124" r="3" transform="rotate(90 104 124)" fill="#496989"/>
<circle cx="124" cy="84" r="5" transform="rotate(90 124 84)" fill="#57ACDC"/>
<circle cx="124" cy="84" r="3" transform="rotate(90 124 84)" fill="#496989"/>
<circle cx="124" cy="104" r="5" transform="rotate(90 124 104)" fill="#57ACDC"/>
<circle cx="124" cy="104" r="3" transform="rotate(90 124 104)" fill="#496989"/>
<circle cx="124" cy="124" r="5" transform="rotate(90 124 124)" fill="#57ACDC"/>
<circle cx="124" cy="124" r="3" transform="rotate(90 124 124)" fill="#496989"/>
<circle cx="124" cy="64" r="5" transform="rotate(90 124 64)" fill="#57ACDC"/>
<circle cx="124" cy="64" r="3" transform="rotate(90 124 64)" fill="#496989"/>
<circle cx="104" cy="64" r="5" transform="rotate(90 104 64)" fill="#57ACDC"/>
<circle cx="104" cy="64" r="3" transform="rotate(90 104 64)" fill="#496989"/>
<circle cx="84" cy="64" r="5" transform="rotate(90 84 64)" fill="#57ACDC"/>
<circle cx="84" cy="64" r="3" transform="rotate(90 84 64)" fill="#496989"/>
<rect x="138" width="4" height="138" transform="rotate(90 138 0)" fill="#F5B041"/>
<rect x="138" y="134" width="4" height="138" transform="rotate(90 138 134)" fill="#F5B041"/>
<rect x="134" width="4" height="138" fill="#F5B041"/>
<rect width="4" height="138" fill="#F5B041"/>
</svg>
