<svg width="138" height="138" viewBox="0 0 138 138" fill="none" xmlns="http://www.w3.org/2000/svg">
<circle cx="84" cy="54" r="4" transform="rotate(-180 84 54)" fill="#C83434"/>
<circle cx="64" cy="54" r="4" transform="rotate(-180 64 54)" fill="#C83434"/>
<circle cx="44" cy="54" r="4" transform="rotate(-180 44 54)" fill="#C83434"/>
<circle cx="24" cy="54" r="4" transform="rotate(-180 24 54)" fill="#C83434"/>
<circle cx="104" cy="54" r="4" transform="rotate(-180 104 54)" fill="#C83434"/>
<circle cx="124" cy="54" r="4" transform="rotate(-180 124 54)" fill="#C83434"/>
<circle cx="84" cy="74" r="4" transform="rotate(-180 84 74)" fill="#C83434"/>
<circle cx="64" cy="74" r="4" transform="rotate(-180 64 74)" fill="#C83434"/>
<circle cx="44" cy="74" r="4" transform="rotate(-180 44 74)" fill="#C83434"/>
<circle cx="24" cy="74" r="4" transform="rotate(-180 24 74)" fill="#C83434"/>
<circle cx="104" cy="74" r="4" transform="rotate(-180 104 74)" fill="#C83434"/>
<circle cx="124" cy="74" r="4" transform="rotate(-180 124 74)" fill="#C83434"/>
<circle cx="84" cy="94" r="4" transform="rotate(-180 84 94)" fill="#C83434"/>
<circle cx="64" cy="94" r="4" transform="rotate(-180 64 94)" fill="#C83434"/>
<circle cx="44" cy="94" r="4" transform="rotate(-180 44 94)" fill="#C83434"/>
<circle cx="24" cy="94" r="4" transform="rotate(-180 24 94)" fill="#C83434"/>
<circle cx="104" cy="94" r="4" transform="rotate(-180 104 94)" fill="#C83434"/>
<circle cx="124" cy="94" r="4" transform="rotate(-180 124 94)" fill="#C83434"/>
<circle cx="84" cy="114" r="4" transform="rotate(-180 84 114)" fill="#C83434"/>
<circle cx="64" cy="114" r="4" transform="rotate(-180 64 114)" fill="#C83434"/>
<circle cx="44" cy="114" r="4" transform="rotate(-180 44 114)" fill="#C83434"/>
<circle cx="24" cy="114" r="4" transform="rotate(-180 24 114)" fill="#C83434"/>
<circle cx="104" cy="114" r="4" transform="rotate(-180 104 114)" fill="#C83434"/>
<circle cx="124" cy="114" r="4" transform="rotate(-180 124 114)" fill="#C83434"/>
<circle cx="84" cy="34" r="4" transform="rotate(-180 84 34)" fill="#C83434"/>
<circle cx="64" cy="34" r="4" transform="rotate(-180 64 34)" fill="#C83434"/>
<circle cx="44" cy="34" r="4" transform="rotate(-180 44 34)" fill="#C83434"/>
<circle cx="24" cy="34" r="4" transform="rotate(-180 24 34)" fill="#C83434"/>
<circle cx="104" cy="34" r="4" transform="rotate(-180 104 34)" fill="#C83434"/>
<circle cx="124" cy="34" r="4" transform="rotate(-180 124 34)" fill="#C83434"/>
<circle cx="84" cy="14" r="4" transform="rotate(-180 84 14)" fill="#C83434"/>
<circle cx="64" cy="14" r="4" transform="rotate(-180 64 14)" fill="#C83434"/>
<circle cx="44" cy="14" r="4" transform="rotate(-180 44 14)" fill="#C83434"/>
<circle cx="24" cy="14" r="4" transform="rotate(-180 24 14)" fill="#C83434"/>
<circle cx="104" cy="14" r="4" transform="rotate(-180 104 14)" fill="#C83434"/>
<circle cx="124" cy="14" r="4" transform="rotate(-180 124 14)" fill="#C83434"/>
<rect width="4" height="10" transform="matrix(0.707107 0.707107 0.707107 -0.707107 114.05 121.121)" fill="#C83434"/>
<rect width="4" height="10" transform="matrix(0.707107 0.707107 0.707107 -0.707107 94.0503 121.121)" fill="#C83434"/>
<rect width="4" height="10" transform="matrix(0.707107 0.707107 0.707107 -0.707107 74.0503 121.121)" fill="#C83434"/>
<rect width="4" height="10" transform="matrix(0.707107 0.707107 0.707107 -0.707107 114.05 101.121)" fill="#C83434"/>
<rect width="4" height="10" transform="matrix(0.707107 0.707107 0.707107 -0.707107 94.0503 101.121)" fill="#C83434"/>
<rect width="4" height="10" transform="matrix(0.707107 0.707107 0.707107 -0.707107 74.0503 101.121)" fill="#C83434"/>
<rect width="4" height="10" transform="matrix(0.707107 0.707107 0.707107 -0.707107 114.05 81.1213)" fill="#C83434"/>
<rect width="4" height="10" transform="matrix(0.707107 0.707107 0.707107 -0.707107 94.0503 81.1213)" fill="#C83434"/>
<rect width="4" height="10" transform="matrix(0.707107 0.707107 0.707107 -0.707107 74.0503 81.1213)" fill="#C83434"/>
<rect width="4" height="10" transform="matrix(0.707107 0.707107 0.707107 -0.707107 54.0503 121.121)" fill="#C83434"/>
<rect width="4" height="10" transform="matrix(0.707107 0.707107 0.707107 -0.707107 34.0503 121.121)" fill="#C83434"/>
<rect width="4" height="10" transform="matrix(0.707107 0.707107 0.707107 -0.707107 14.0503 121.121)" fill="#C83434"/>
<rect width="4" height="10" transform="matrix(0.707107 0.707107 0.707107 -0.707107 54.0503 101.121)" fill="#C83434"/>
<rect width="4" height="10" transform="matrix(0.707107 0.707107 0.707107 -0.707107 34.0503 101.121)" fill="#C83434"/>
<rect width="4" height="10" transform="matrix(0.707107 0.707107 0.707107 -0.707107 14.0503 101.121)" fill="#C83434"/>
<rect width="4" height="10" transform="matrix(0.707107 0.707107 0.707107 -0.707107 54.0503 81.1213)" fill="#C83434"/>
<rect width="4" height="10" transform="matrix(0.707107 0.707107 0.707107 -0.707107 34.0503 81.1213)" fill="#C83434"/>
<rect width="4" height="10" transform="matrix(0.707107 0.707107 0.707107 -0.707107 14.0503 81.1213)" fill="#C83434"/>
<rect width="4" height="10" transform="matrix(0.707107 0.707107 0.707107 -0.707107 54.0503 61.1213)" fill="#C83434"/>
<rect width="4" height="10" transform="matrix(0.707107 0.707107 0.707107 -0.707107 34.0503 61.1213)" fill="#C83434"/>
<rect width="4" height="10" transform="matrix(0.707107 0.707107 0.707107 -0.707107 14.0503 61.1213)" fill="#C83434"/>
<rect width="4" height="10" transform="matrix(0.707107 0.707107 0.707107 -0.707107 54.0503 41.1213)" fill="#C83434"/>
<rect width="4" height="10" transform="matrix(0.707107 0.707107 0.707107 -0.707107 34.0503 41.1213)" fill="#C83434"/>
<rect width="4" height="10" transform="matrix(0.707107 0.707107 0.707107 -0.707107 14.0503 41.1213)" fill="#C83434"/>
<rect width="4" height="10" transform="matrix(0.707107 0.707107 0.707107 -0.707107 54.0503 21.1213)" fill="#C83434"/>
<rect width="4" height="10" transform="matrix(0.707107 0.707107 0.707107 -0.707107 34.0503 21.1213)" fill="#C83434"/>
<rect width="4" height="10" transform="matrix(0.707107 0.707107 0.707107 -0.707107 14.0503 21.1213)" fill="#C83434"/>
<rect width="4" height="10" transform="matrix(0.707107 0.707107 0.707107 -0.707107 114.05 61.1213)" fill="#C83434"/>
<rect width="4" height="10" transform="matrix(0.707107 0.707107 0.707107 -0.707107 94.0503 61.1213)" fill="#C83434"/>
<rect width="4" height="10" transform="matrix(0.707107 0.707107 0.707107 -0.707107 74.0503 61.1213)" fill="#C83434"/>
<rect width="4" height="10" transform="matrix(0.707107 0.707107 0.707107 -0.707107 114.05 41.1213)" fill="#C83434"/>
<rect width="4" height="10" transform="matrix(0.707107 0.707107 0.707107 -0.707107 94.0503 41.1213)" fill="#C83434"/>
<rect width="4" height="10" transform="matrix(0.707107 0.707107 0.707107 -0.707107 74.0503 41.1213)" fill="#C83434"/>
<rect width="4" height="10" transform="matrix(0.707107 0.707107 0.707107 -0.707107 114.05 21.1213)" fill="#C83434"/>
<rect width="4" height="10" transform="matrix(0.707107 0.707107 0.707107 -0.707107 94.0503 21.1213)" fill="#C83434"/>
<rect width="4" height="10" transform="matrix(0.707107 0.707107 0.707107 -0.707107 74.0503 21.1213)" fill="#C83434"/>
<circle cx="114" cy="124" r="5" transform="rotate(-180 114 124)" fill="#57ACDC"/>
<circle cx="114" cy="124" r="3" transform="rotate(-180 114 124)" fill="#496989"/>
<circle cx="94" cy="124" r="5" transform="rotate(-180 94 124)" fill="#57ACDC"/>
<circle cx="94" cy="124" r="3" transform="rotate(-180 94 124)" fill="#496989"/>
<circle cx="114" cy="104" r="5" transform="rotate(-180 114 104)" fill="#57ACDC"/>
<circle cx="114" cy="104" r="3" transform="rotate(-180 114 104)" fill="#496989"/>
<circle cx="94" cy="104" r="5" transform="rotate(-180 94 104)" fill="#57ACDC"/>
<circle cx="94" cy="104" r="3" transform="rotate(-180 94 104)" fill="#496989"/>
<circle cx="114" cy="84" r="5" transform="rotate(-180 114 84)" fill="#57ACDC"/>
<circle cx="114" cy="84" r="3" transform="rotate(-180 114 84)" fill="#496989"/>
<circle cx="94" cy="84" r="5" transform="rotate(-180 94 84)" fill="#57ACDC"/>
<circle cx="94" cy="84" r="3" transform="rotate(-180 94 84)" fill="#496989"/>
<circle cx="114" cy="44" r="5" transform="rotate(-180 114 44)" fill="#57ACDC"/>
<circle cx="114" cy="44" r="3" transform="rotate(-180 114 44)" fill="#496989"/>
<circle cx="94" cy="44" r="5" transform="rotate(-180 94 44)" fill="#57ACDC"/>
<circle cx="94" cy="44" r="3" transform="rotate(-180 94 44)" fill="#496989"/>
<circle cx="114" cy="24" r="5" transform="rotate(-180 114 24)" fill="#57ACDC"/>
<circle cx="114" cy="24" r="3" transform="rotate(-180 114 24)" fill="#496989"/>
<circle cx="94" cy="24" r="5" transform="rotate(-180 94 24)" fill="#57ACDC"/>
<circle cx="94" cy="24" r="3" transform="rotate(-180 94 24)" fill="#496989"/>
<circle cx="54" cy="24" r="5" transform="rotate(-180 54 24)" fill="#57ACDC"/>
<circle cx="54" cy="24" r="3" transform="rotate(-180 54 24)" fill="#496989"/>
<circle cx="34" cy="24" r="5" transform="rotate(-180 34 24)" fill="#57ACDC"/>
<circle cx="34" cy="24" r="3" transform="rotate(-180 34 24)" fill="#496989"/>
<circle cx="14" cy="24" r="5" transform="rotate(-180 14 24)" fill="#57ACDC"/>
<circle cx="14" cy="24" r="3" transform="rotate(-180 14 24)" fill="#496989"/>
<circle cx="54" cy="44" r="5" transform="rotate(-180 54 44)" fill="#57ACDC"/>
<circle cx="54" cy="44" r="3" transform="rotate(-180 54 44)" fill="#496989"/>
<circle cx="34" cy="44" r="5" transform="rotate(-180 34 44)" fill="#57ACDC"/>
<circle cx="34" cy="44" r="3" transform="rotate(-180 34 44)" fill="#496989"/>
<circle cx="14" cy="44" r="5" transform="rotate(-180 14 44)" fill="#57ACDC"/>
<circle cx="14" cy="44" r="3" transform="rotate(-180 14 44)" fill="#496989"/>
<circle cx="54" cy="84" r="5" transform="rotate(-180 54 84)" fill="#57ACDC"/>
<circle cx="54" cy="84" r="3" transform="rotate(-180 54 84)" fill="#496989"/>
<circle cx="54" cy="64" r="5" transform="rotate(-180 54 64)" fill="#57ACDC"/>
<circle cx="54" cy="64" r="3" transform="rotate(-180 54 64)" fill="#496989"/>
<circle cx="14" cy="64" r="5" transform="rotate(-180 14 64)" fill="#57ACDC"/>
<circle cx="14" cy="64" r="3" transform="rotate(-180 14 64)" fill="#496989"/>
<circle cx="74" cy="64" r="5" transform="rotate(-180 74 64)" fill="#57ACDC"/>
<circle cx="74" cy="64" r="3" transform="rotate(-180 74 64)" fill="#496989"/>
<circle cx="94" cy="64" r="5" transform="rotate(-180 94 64)" fill="#57ACDC"/>
<circle cx="94" cy="64" r="3" transform="rotate(-180 94 64)" fill="#496989"/>
<circle cx="114" cy="64" r="5" transform="rotate(-180 114 64)" fill="#57ACDC"/>
<circle cx="114" cy="64" r="3" transform="rotate(-180 114 64)" fill="#496989"/>
<circle cx="74" cy="44" r="5" transform="rotate(-180 74 44)" fill="#57ACDC"/>
<circle cx="74" cy="44" r="3" transform="rotate(-180 74 44)" fill="#496989"/>
<circle cx="74" cy="24" r="5" transform="rotate(-180 74 24)" fill="#57ACDC"/>
<circle cx="74" cy="24" r="3" transform="rotate(-180 74 24)" fill="#496989"/>
<circle cx="34" cy="84" r="5" transform="rotate(-180 34 84)" fill="#57ACDC"/>
<circle cx="34" cy="84" r="3" transform="rotate(-180 34 84)" fill="#496989"/>
<circle cx="34" cy="64" r="5" transform="rotate(-180 34 64)" fill="#57ACDC"/>
<circle cx="34" cy="64" r="3" transform="rotate(-180 34 64)" fill="#496989"/>
<circle cx="14" cy="84" r="5" transform="rotate(-180 14 84)" fill="#57ACDC"/>
<circle cx="14" cy="84" r="3" transform="rotate(-180 14 84)" fill="#496989"/>
<circle cx="54" cy="104" r="5" transform="rotate(-180 54 104)" fill="#57ACDC"/>
<circle cx="54" cy="104" r="3" transform="rotate(-180 54 104)" fill="#496989"/>
<circle cx="34" cy="104" r="5" transform="rotate(-180 34 104)" fill="#57ACDC"/>
<circle cx="34" cy="104" r="3" transform="rotate(-180 34 104)" fill="#496989"/>
<circle cx="14" cy="104" r="5" transform="rotate(-180 14 104)" fill="#57ACDC"/>
<circle cx="14" cy="104" r="3" transform="rotate(-180 14 104)" fill="#496989"/>
<circle cx="54" cy="124" r="5" transform="rotate(-180 54 124)" fill="#57ACDC"/>
<circle cx="54" cy="124" r="3" transform="rotate(-180 54 124)" fill="#496989"/>
<circle cx="34" cy="124" r="5" transform="rotate(-180 34 124)" fill="#57ACDC"/>
<circle cx="34" cy="124" r="3" transform="rotate(-180 34 124)" fill="#496989"/>
<circle cx="14" cy="124" r="5" transform="rotate(-180 14 124)" fill="#57ACDC"/>
<circle cx="14" cy="124" r="3" transform="rotate(-180 14 124)" fill="#496989"/>
<circle cx="74" cy="124" r="5" transform="rotate(-180 74 124)" fill="#57ACDC"/>
<circle cx="74" cy="124" r="3" transform="rotate(-180 74 124)" fill="#496989"/>
<circle cx="74" cy="104" r="5" transform="rotate(-180 74 104)" fill="#57ACDC"/>
<circle cx="74" cy="104" r="3" transform="rotate(-180 74 104)" fill="#496989"/>
<circle cx="74" cy="84" r="5" transform="rotate(-180 74 84)" fill="#57ACDC"/>
<circle cx="74" cy="84" r="3" transform="rotate(-180 74 84)" fill="#496989"/>
<rect x="138" y="138" width="4" height="138" transform="rotate(-180 138 138)" fill="#F5B041"/>
<rect x="4" y="138" width="4" height="138" transform="rotate(-180 4 138)" fill="#F5B041"/>
<rect x="138" y="134" width="4" height="138" transform="rotate(90 138 134)" fill="#F5B041"/>
<rect x="138" width="4" height="138" transform="rotate(90 138 0)" fill="#F5B041"/>
</svg>
