<svg width="158" height="158" viewBox="0 0 158 158" fill="none" xmlns="http://www.w3.org/2000/svg">
<rect width="4" height="158" fill="#F5B041"/>
<rect x="154" width="4" height="158" fill="#F5B041"/>
<rect y="4" width="4" height="158" transform="rotate(-90 0 4)" fill="#F5B041"/>
<rect y="158" width="4" height="158" transform="rotate(-90 0 158)" fill="#F5B041"/>
<path d="M28.0508 66.3965C28.6719 66.3965 29.2227 66.2793 29.7031 66.0449C30.1836 65.7988 30.5586 65.459 30.8281 65.0254C31.1094 64.5801 31.2559 64.0586 31.2676 63.4609H36.0312C36.0195 64.7969 35.6621 65.9863 34.959 67.0293C34.2559 68.0605 33.3125 68.875 32.1289 69.4727C30.9453 70.0586 29.6211 70.3516 28.1562 70.3516C26.6797 70.3516 25.3906 70.1055 24.2891 69.6133C23.1992 69.1211 22.291 68.4414 21.5645 67.5742C20.8379 66.6953 20.293 65.6758 19.9297 64.5156C19.5664 63.3438 19.3848 62.0898 19.3848 60.7539V60.2441C19.3848 58.8965 19.5664 57.6426 19.9297 56.4824C20.293 55.3105 20.8379 54.291 21.5645 53.4238C22.291 52.5449 23.1992 51.8594 24.2891 51.3672C25.3789 50.875 26.6562 50.6289 28.1211 50.6289C29.6797 50.6289 31.0449 50.9277 32.2168 51.5254C33.4004 52.123 34.3262 52.9785 34.9941 54.0918C35.6738 55.1934 36.0195 56.5 36.0312 58.0117H31.2676C31.2559 57.3789 31.1211 56.8047 30.8633 56.2891C30.6172 55.7734 30.2539 55.3633 29.7734 55.0586C29.3047 54.7422 28.7246 54.584 28.0332 54.584C27.2949 54.584 26.6914 54.7422 26.2227 55.0586C25.7539 55.3633 25.3906 55.7852 25.1328 56.3242C24.875 56.8516 24.6934 57.4551 24.5879 58.1348C24.4941 58.8027 24.4473 59.5059 24.4473 60.2441V60.7539C24.4473 61.4922 24.4941 62.2012 24.5879 62.8809C24.6816 63.5605 24.8574 64.1641 25.1152 64.6914C25.3848 65.2188 25.7539 65.6348 26.2227 65.9395C26.6914 66.2441 27.3008 66.3965 28.0508 66.3965ZM38.1582 60.6836V60.3145C38.1582 58.9199 38.3574 57.6367 38.7559 56.4648C39.1543 55.2812 39.7344 54.2559 40.4961 53.3887C41.2578 52.5215 42.1953 51.8477 43.3086 51.3672C44.4219 50.875 45.6992 50.6289 47.1406 50.6289C48.582 50.6289 49.8652 50.875 50.9902 51.3672C52.1152 51.8477 53.0586 52.5215 53.8203 53.3887C54.5938 54.2559 55.1797 55.2812 55.5781 56.4648C55.9766 57.6367 56.1758 58.9199 56.1758 60.3145V60.6836C56.1758 62.0664 55.9766 63.3496 55.5781 64.5332C55.1797 65.7051 54.5938 66.7305 53.8203 67.6094C53.0586 68.4766 52.1211 69.1504 51.0078 69.6309C49.8945 70.1113 48.6172 70.3516 47.1758 70.3516C45.7344 70.3516 44.4512 70.1113 43.3262 69.6309C42.2129 69.1504 41.2695 68.4766 40.4961 67.6094C39.7344 66.7305 39.1543 65.7051 38.7559 64.5332C38.3574 63.3496 38.1582 62.0664 38.1582 60.6836ZM43.2207 60.3145V60.6836C43.2207 61.4805 43.291 62.2246 43.4316 62.916C43.5723 63.6074 43.7949 64.2168 44.0996 64.7441C44.416 65.2598 44.8262 65.6641 45.3301 65.957C45.834 66.25 46.4492 66.3965 47.1758 66.3965C47.8789 66.3965 48.4824 66.25 48.9863 65.957C49.4902 65.6641 49.8945 65.2598 50.1992 64.7441C50.5039 64.2168 50.7266 63.6074 50.8672 62.916C51.0195 62.2246 51.0957 61.4805 51.0957 60.6836V60.3145C51.0957 59.541 51.0195 58.8145 50.8672 58.1348C50.7266 57.4434 50.498 56.834 50.1816 56.3066C49.877 55.7676 49.4727 55.3457 48.9688 55.041C48.4648 54.7363 47.8555 54.584 47.1406 54.584C46.4258 54.584 45.8164 54.7363 45.3125 55.041C44.8203 55.3457 44.416 55.7676 44.0996 56.3066C43.7949 56.834 43.5723 57.4434 43.4316 58.1348C43.291 58.8145 43.2207 59.541 43.2207 60.3145ZM64.3496 54.918V70H59.2695V50.9805H64.0332L64.3496 54.918ZM63.6465 59.8223H62.2402C62.2402 58.498 62.3984 57.2793 62.7148 56.166C63.043 55.041 63.5176 54.0684 64.1387 53.248C64.7715 52.416 65.5508 51.7715 66.4766 51.3145C67.4023 50.8574 68.4746 50.6289 69.6934 50.6289C70.5371 50.6289 71.3105 50.7578 72.0137 51.0156C72.7168 51.2617 73.3203 51.6543 73.8242 52.1934C74.3398 52.7207 74.7383 53.4121 75.0195 54.2676C75.3008 55.1113 75.4414 56.125 75.4414 57.3086V70H70.3789V57.8711C70.3789 57.0039 70.2617 56.3359 70.0273 55.8672C69.793 55.3984 69.459 55.0703 69.0254 54.8828C68.6035 54.6953 68.0938 54.6016 67.4961 54.6016C66.8398 54.6016 66.2656 54.7363 65.7734 55.0059C65.293 55.2754 64.8945 55.6504 64.5781 56.1309C64.2617 56.5996 64.0273 57.1504 63.875 57.7832C63.7227 58.416 63.6465 59.0957 63.6465 59.8223ZM74.9668 59.2422L73.1562 59.4707C73.1562 58.2285 73.3086 57.0742 73.6133 56.0078C73.9297 54.9414 74.3926 54.0039 75.002 53.1953C75.623 52.3867 76.3906 51.7598 77.3047 51.3145C78.2188 50.8574 79.2734 50.6289 80.4688 50.6289C81.3828 50.6289 82.2148 50.7637 82.9648 51.0332C83.7148 51.291 84.3535 51.707 84.8809 52.2812C85.4199 52.8438 85.8301 53.582 86.1113 54.4961C86.4043 55.4102 86.5508 56.5293 86.5508 57.8535V70H81.4707V57.8535C81.4707 56.9746 81.3535 56.3066 81.1191 55.8496C80.8965 55.3809 80.5684 55.0586 80.1348 54.8828C79.7129 54.6953 79.209 54.6016 78.623 54.6016C78.0137 54.6016 77.4805 54.7246 77.0234 54.9707C76.5664 55.2051 76.1855 55.5332 75.8809 55.9551C75.5762 56.377 75.3477 56.8691 75.1953 57.4316C75.043 57.9824 74.9668 58.5859 74.9668 59.2422ZM95.8145 50.9805V70H90.7344V50.9805H95.8145ZM90.418 46.0234C90.418 45.2852 90.6758 44.6758 91.1914 44.1953C91.707 43.7148 92.3984 43.4746 93.2656 43.4746C94.1211 43.4746 94.8066 43.7148 95.3223 44.1953C95.8496 44.6758 96.1133 45.2852 96.1133 46.0234C96.1133 46.7617 95.8496 47.3711 95.3223 47.8516C94.8066 48.332 94.1211 48.5723 93.2656 48.5723C92.3984 48.5723 91.707 48.332 91.1914 47.8516C90.6758 47.3711 90.418 46.7617 90.418 46.0234ZM104.955 55.041V70H99.8926V50.9805H104.639L104.955 55.041ZM104.217 59.8223H102.846C102.846 58.416 103.027 57.1504 103.391 56.0254C103.754 54.8887 104.264 53.9219 104.92 53.125C105.576 52.3164 106.355 51.7012 107.258 51.2793C108.172 50.8457 109.191 50.6289 110.316 50.6289C111.207 50.6289 112.021 50.7578 112.76 51.0156C113.498 51.2734 114.131 51.6836 114.658 52.2461C115.197 52.8086 115.607 53.5527 115.889 54.4785C116.182 55.4043 116.328 56.5352 116.328 57.8711V70H111.23V57.8535C111.23 57.0098 111.113 56.3535 110.879 55.8848C110.645 55.416 110.299 55.0879 109.842 54.9004C109.396 54.7012 108.846 54.6016 108.189 54.6016C107.51 54.6016 106.918 54.7363 106.414 55.0059C105.922 55.2754 105.512 55.6504 105.184 56.1309C104.867 56.5996 104.627 57.1504 104.463 57.7832C104.299 58.416 104.217 59.0957 104.217 59.8223ZM132.219 50.9805H136.807V69.3672C136.807 71.1016 136.42 72.5723 135.646 73.7793C134.885 74.998 133.818 75.918 132.447 76.5391C131.076 77.1719 129.482 77.4883 127.666 77.4883C126.869 77.4883 126.025 77.3828 125.135 77.1719C124.256 76.9609 123.412 76.6328 122.604 76.1875C121.807 75.7422 121.139 75.1797 120.6 74.5L122.832 71.5117C123.418 72.1914 124.098 72.7188 124.871 73.0938C125.645 73.4805 126.5 73.6738 127.438 73.6738C128.352 73.6738 129.125 73.5039 129.758 73.1641C130.391 72.8359 130.877 72.3496 131.217 71.7051C131.557 71.0723 131.727 70.3047 131.727 69.4023V55.375L132.219 50.9805ZM119.422 60.7188V60.3496C119.422 58.8965 119.598 57.5781 119.949 56.3945C120.312 55.1992 120.822 54.1738 121.479 53.3184C122.146 52.4629 122.955 51.8008 123.904 51.332C124.854 50.8633 125.926 50.6289 127.121 50.6289C128.387 50.6289 129.447 50.8633 130.303 51.332C131.158 51.8008 131.861 52.4688 132.412 53.3359C132.963 54.1914 133.391 55.2051 133.695 56.377C134.012 57.5371 134.258 58.8086 134.434 60.1914V61C134.258 62.3242 133.994 63.5547 133.643 64.6914C133.291 65.8281 132.828 66.8242 132.254 67.6797C131.68 68.5234 130.965 69.1797 130.109 69.6484C129.266 70.1172 128.258 70.3516 127.086 70.3516C125.914 70.3516 124.854 70.1113 123.904 69.6309C122.967 69.1504 122.164 68.4766 121.496 67.6094C120.828 66.7422 120.312 65.7227 119.949 64.5508C119.598 63.3789 119.422 62.1016 119.422 60.7188ZM124.484 60.3496V60.7188C124.484 61.5039 124.561 62.2363 124.713 62.916C124.865 63.5957 125.1 64.1992 125.416 64.7266C125.744 65.2422 126.148 65.6465 126.629 65.9395C127.121 66.2207 127.701 66.3613 128.369 66.3613C129.295 66.3613 130.051 66.168 130.637 65.7812C131.223 65.3828 131.662 64.8379 131.955 64.1465C132.248 63.4551 132.418 62.6582 132.465 61.7559V59.4531C132.441 58.7148 132.342 58.0527 132.166 57.4668C131.99 56.8691 131.744 56.3594 131.428 55.9375C131.111 55.5156 130.701 55.1875 130.197 54.9531C129.693 54.7188 129.096 54.6016 128.404 54.6016C127.736 54.6016 127.156 54.7539 126.664 55.0586C126.184 55.3516 125.779 55.7559 125.451 56.2715C125.135 56.7871 124.895 57.3965 124.73 58.0996C124.566 58.791 124.484 59.541 124.484 60.3496ZM51.0957 106.744C51.0957 106.381 50.9902 106.053 50.7793 105.76C50.5684 105.467 50.1758 105.197 49.6016 104.951C49.0391 104.693 48.2246 104.459 47.1582 104.248C46.1973 104.037 45.3008 103.773 44.4688 103.457C43.6484 103.129 42.9336 102.736 42.3242 102.279C41.7266 101.822 41.2578 101.283 40.918 100.662C40.5781 100.029 40.4082 99.3086 40.4082 98.5C40.4082 97.7031 40.5781 96.9531 40.918 96.25C41.2695 95.5469 41.7676 94.9258 42.4121 94.3867C43.0684 93.8359 43.8652 93.4082 44.8027 93.1035C45.752 92.7871 46.8184 92.6289 48.002 92.6289C49.6543 92.6289 51.0723 92.8926 52.2559 93.4199C53.4512 93.9473 54.3652 94.6738 54.998 95.5996C55.6426 96.5137 55.9648 97.5566 55.9648 98.7285H50.9023C50.9023 98.2363 50.7969 97.7969 50.5859 97.4102C50.3867 97.0117 50.0703 96.7012 49.6367 96.4785C49.2148 96.2441 48.6641 96.127 47.9844 96.127C47.4219 96.127 46.9355 96.2266 46.5254 96.4258C46.1152 96.6133 45.7988 96.8711 45.5762 97.1992C45.3652 97.5156 45.2598 97.8672 45.2598 98.2539C45.2598 98.5469 45.3184 98.8105 45.4355 99.0449C45.5645 99.2676 45.7695 99.4727 46.0508 99.6602C46.332 99.8477 46.6953 100.023 47.1406 100.188C47.5977 100.34 48.1602 100.48 48.8281 100.609C50.1992 100.891 51.4238 101.26 52.502 101.717C53.5801 102.162 54.4355 102.771 55.0684 103.545C55.7012 104.307 56.0176 105.309 56.0176 106.551C56.0176 107.395 55.8301 108.168 55.4551 108.871C55.0801 109.574 54.541 110.189 53.8379 110.717C53.1348 111.232 52.291 111.637 51.3066 111.93C50.334 112.211 49.2383 112.352 48.0195 112.352C46.25 112.352 44.75 112.035 43.5195 111.402C42.3008 110.77 41.375 109.967 40.7422 108.994C40.1211 108.01 39.8105 107.002 39.8105 105.971H44.6094C44.6328 106.662 44.8086 107.219 45.1367 107.641C45.4766 108.062 45.9043 108.367 46.4199 108.555C46.9473 108.742 47.5156 108.836 48.125 108.836C48.7812 108.836 49.3262 108.748 49.7598 108.572C50.1934 108.385 50.5215 108.139 50.7441 107.834C50.9785 107.518 51.0957 107.154 51.0957 106.744ZM58.4961 102.684V102.314C58.4961 100.92 58.6953 99.6367 59.0938 98.4648C59.4922 97.2812 60.0723 96.2559 60.834 95.3887C61.5957 94.5215 62.5332 93.8477 63.6465 93.3672C64.7598 92.875 66.0371 92.6289 67.4785 92.6289C68.9199 92.6289 70.2031 92.875 71.3281 93.3672C72.4531 93.8477 73.3965 94.5215 74.1582 95.3887C74.9316 96.2559 75.5176 97.2812 75.916 98.4648C76.3145 99.6367 76.5137 100.92 76.5137 102.314V102.684C76.5137 104.066 76.3145 105.35 75.916 106.533C75.5176 107.705 74.9316 108.73 74.1582 109.609C73.3965 110.477 72.459 111.15 71.3457 111.631C70.2324 112.111 68.9551 112.352 67.5137 112.352C66.0723 112.352 64.7891 112.111 63.6641 111.631C62.5508 111.15 61.6074 110.477 60.834 109.609C60.0723 108.73 59.4922 107.705 59.0938 106.533C58.6953 105.35 58.4961 104.066 58.4961 102.684ZM63.5586 102.314V102.684C63.5586 103.48 63.6289 104.225 63.7695 104.916C63.9102 105.607 64.1328 106.217 64.4375 106.744C64.7539 107.26 65.1641 107.664 65.668 107.957C66.1719 108.25 66.7871 108.396 67.5137 108.396C68.2168 108.396 68.8203 108.25 69.3242 107.957C69.8281 107.664 70.2324 107.26 70.5371 106.744C70.8418 106.217 71.0645 105.607 71.2051 104.916C71.3574 104.225 71.4336 103.48 71.4336 102.684V102.314C71.4336 101.541 71.3574 100.814 71.2051 100.135C71.0645 99.4434 70.8359 98.834 70.5195 98.3066C70.2148 97.7676 69.8105 97.3457 69.3066 97.041C68.8027 96.7363 68.1934 96.584 67.4785 96.584C66.7637 96.584 66.1543 96.7363 65.6504 97.041C65.1582 97.3457 64.7539 97.7676 64.4375 98.3066C64.1328 98.834 63.9102 99.4434 63.7695 100.135C63.6289 100.814 63.5586 101.541 63.5586 102.314ZM78.8164 102.684V102.314C78.8164 100.92 79.0156 99.6367 79.4141 98.4648C79.8125 97.2812 80.3926 96.2559 81.1543 95.3887C81.916 94.5215 82.8535 93.8477 83.9668 93.3672C85.0801 92.875 86.3574 92.6289 87.7988 92.6289C89.2402 92.6289 90.5234 92.875 91.6484 93.3672C92.7734 93.8477 93.7168 94.5215 94.4785 95.3887C95.252 96.2559 95.8379 97.2812 96.2363 98.4648C96.6348 99.6367 96.834 100.92 96.834 102.314V102.684C96.834 104.066 96.6348 105.35 96.2363 106.533C95.8379 107.705 95.252 108.73 94.4785 109.609C93.7168 110.477 92.7793 111.15 91.666 111.631C90.5527 112.111 89.2754 112.352 87.834 112.352C86.3926 112.352 85.1094 112.111 83.9844 111.631C82.8711 111.15 81.9277 110.477 81.1543 109.609C80.3926 108.73 79.8125 107.705 79.4141 106.533C79.0156 105.35 78.8164 104.066 78.8164 102.684ZM83.8789 102.314V102.684C83.8789 103.48 83.9492 104.225 84.0898 104.916C84.2305 105.607 84.4531 106.217 84.7578 106.744C85.0742 107.26 85.4844 107.664 85.9883 107.957C86.4922 108.25 87.1074 108.396 87.834 108.396C88.5371 108.396 89.1406 108.25 89.6445 107.957C90.1484 107.664 90.5527 107.26 90.8574 106.744C91.1621 106.217 91.3848 105.607 91.5254 104.916C91.6777 104.225 91.7539 103.48 91.7539 102.684V102.314C91.7539 101.541 91.6777 100.814 91.5254 100.135C91.3848 99.4434 91.1562 98.834 90.8398 98.3066C90.5352 97.7676 90.1309 97.3457 89.627 97.041C89.123 96.7363 88.5137 96.584 87.7988 96.584C87.084 96.584 86.4746 96.7363 85.9707 97.041C85.4785 97.3457 85.0742 97.7676 84.7578 98.3066C84.4531 98.834 84.2305 99.4434 84.0898 100.135C83.9492 100.814 83.8789 101.541 83.8789 102.314ZM104.902 97.041V112H99.8398V92.9805H104.586L104.902 97.041ZM104.164 101.822H102.793C102.793 100.416 102.975 99.1504 103.338 98.0254C103.701 96.8887 104.211 95.9219 104.867 95.125C105.523 94.3164 106.303 93.7012 107.205 93.2793C108.119 92.8457 109.139 92.6289 110.264 92.6289C111.154 92.6289 111.969 92.7578 112.707 93.0156C113.445 93.2734 114.078 93.6836 114.605 94.2461C115.145 94.8086 115.555 95.5527 115.836 96.4785C116.129 97.4043 116.275 98.5352 116.275 99.8711V112H111.178V99.8535C111.178 99.0098 111.061 98.3535 110.826 97.8848C110.592 97.416 110.246 97.0879 109.789 96.9004C109.344 96.7012 108.793 96.6016 108.137 96.6016C107.457 96.6016 106.865 96.7363 106.361 97.0059C105.869 97.2754 105.459 97.6504 105.131 98.1309C104.814 98.5996 104.574 99.1504 104.41 99.7832C104.246 100.416 104.164 101.096 104.164 101.822Z" fill="#57ACDC"/>
</svg>
