<svg width="141" height="160" viewBox="0 0 141 160" fill="none" xmlns="http://www.w3.org/2000/svg">
<path d="M5 30L15 40H25M5 5L20 20H25M5 105L10 100H25M5 130L15 120H25M5 155L20 140H25" stroke="#C83434" stroke-width="4"/>
<line x1="5.70711" y1="54.2929" x2="11.7071" y2="60.2929" stroke="#C83434" stroke-width="2"/>
<rect x="25" y="15" width="24" height="10" fill="#C83434"/>
<rect x="25" y="35" width="24" height="10" fill="#C83434"/>
<rect x="25" y="55" width="24" height="10" fill="#C83434"/>
<rect x="25" y="75" width="24" height="10" fill="#C83434"/>
<rect x="25" y="95" width="24" height="10" fill="#C83434"/>
<rect x="25" y="115" width="24" height="10" fill="#C83434"/>
<rect x="25" y="135" width="24" height="10" fill="#C83434"/>
<rect x="117" y="15" width="24" height="10" fill="#C83434"/>
<rect x="117" y="55" width="24" height="10" fill="#C83434"/>
<rect x="117" y="95" width="24" height="10" fill="#C83434"/>
<rect x="117" y="135" width="24" height="10" fill="#C83434"/>
<rect x="117" y="35" width="24" height="10" fill="#C83434"/>
<rect x="117" y="75" width="24" height="10" fill="#C83434"/>
<rect x="117" y="115" width="24" height="10" fill="#C83434"/>
<circle cx="5" cy="5" r="5" fill="#57ACDC"/>
<circle cx="5" cy="5" r="3" fill="#496989"/>
<circle cx="5" cy="30" r="5" fill="#57ACDC"/>
<circle cx="5" cy="30" r="3" fill="#496989"/>
<rect x="5" y="78" width="20" height="4" fill="#C83434"/>
<circle cx="5" cy="80" r="5" fill="#57ACDC"/>
<circle cx="5" cy="80" r="3" fill="#496989"/>
<circle cx="5" cy="105" r="5" fill="#57ACDC"/>
<circle cx="5" cy="105" r="3" fill="#496989"/>
<circle cx="5" cy="130" r="5" fill="#57ACDC"/>
<circle cx="5" cy="130" r="3" fill="#496989"/>
<circle cx="5" cy="155" r="5" fill="#57ACDC"/>
<circle cx="5" cy="155" r="3" fill="#496989"/>
<rect x="53" y="5" width="4" height="150" fill="#F5B041"/>
<rect x="109" y="5" width="4" height="150" fill="#F5B041"/>
<rect x="53" y="9" width="4" height="60" transform="rotate(-90 53 9)" fill="#F5B041"/>
<rect x="53" y="9" width="4" height="60" transform="rotate(-90 53 9)" fill="#F5B041"/>
<rect x="53" y="155" width="4" height="60" transform="rotate(-90 53 155)" fill="#F5B041"/>
<path d="M5 55L11 61H25" stroke="#C83434" stroke-width="4"/>
<circle cx="5" cy="55" r="5" fill="#57ACDC"/>
<circle cx="5" cy="55" r="3" fill="#496989"/>
</svg>
