<svg width="148" height="148" viewBox="0 0 148 148" fill="none" xmlns="http://www.w3.org/2000/svg">
<circle cx="64" cy="84" r="4" fill="#C83434"/>
<circle cx="84" cy="84" r="4" fill="#C83434"/>
<circle cx="104" cy="84" r="4" fill="#C83434"/>
<circle cx="124" cy="84" r="4" fill="#C83434"/>
<circle cx="44" cy="84" r="4" fill="#C83434"/>
<circle cx="24" cy="84" r="4" fill="#C83434"/>
<circle cx="64" cy="64" r="4" fill="#C83434"/>
<circle cx="84" cy="64" r="4" fill="#C83434"/>
<circle cx="104" cy="64" r="4" fill="#C83434"/>
<circle cx="124" cy="64" r="4" fill="#C83434"/>
<circle cx="44" cy="64" r="4" fill="#C83434"/>
<circle cx="24" cy="64" r="4" fill="#C83434"/>
<circle cx="64" cy="44" r="4" fill="#C83434"/>
<circle cx="84" cy="44" r="4" fill="#C83434"/>
<circle cx="104" cy="44" r="4" fill="#C83434"/>
<circle cx="124" cy="44" r="4" fill="#C83434"/>
<circle cx="44" cy="44" r="4" fill="#C83434"/>
<circle cx="24" cy="44" r="4" fill="#C83434"/>
<circle cx="64" cy="24" r="4" fill="#C83434"/>
<circle cx="84" cy="24" r="4" fill="#C83434"/>
<circle cx="104" cy="24" r="4" fill="#C83434"/>
<circle cx="124" cy="24" r="4" fill="#C83434"/>
<circle cx="44" cy="24" r="4" fill="#C83434"/>
<circle cx="24" cy="24" r="4" fill="#C83434"/>
<circle cx="64" cy="104" r="4" fill="#C83434"/>
<circle cx="84" cy="104" r="4" fill="#C83434"/>
<circle cx="104" cy="104" r="4" fill="#C83434"/>
<circle cx="124" cy="104" r="4" fill="#C83434"/>
<circle cx="44" cy="104" r="4" fill="#C83434"/>
<circle cx="24" cy="104" r="4" fill="#C83434"/>
<circle cx="64" cy="124" r="4" fill="#C83434"/>
<circle cx="84" cy="124" r="4" fill="#C83434"/>
<circle cx="104" cy="124" r="4" fill="#C83434"/>
<circle cx="124" cy="124" r="4" fill="#C83434"/>
<circle cx="44" cy="124" r="4" fill="#C83434"/>
<circle cx="24" cy="124" r="4" fill="#C83434"/>
<rect width="4" height="10" transform="matrix(0.707107 -0.707107 -0.707107 -0.707107 21.1213 23.9498)" fill="#C83434"/>
<rect width="4" height="10" transform="matrix(0.707107 -0.707107 -0.707107 -0.707107 41.1213 23.9498)" fill="#C83434"/>
<rect width="4" height="10" transform="matrix(0.707107 -0.707107 -0.707107 -0.707107 61.1213 23.9498)" fill="#C83434"/>
<rect width="4" height="10" transform="matrix(0.707107 -0.707107 -0.707107 -0.707107 21.1213 43.9498)" fill="#C83434"/>
<rect width="4" height="10" transform="matrix(0.707107 -0.707107 -0.707107 -0.707107 41.1213 43.9498)" fill="#C83434"/>
<rect width="4" height="10" transform="matrix(0.707107 -0.707107 -0.707107 -0.707107 61.1213 43.9498)" fill="#C83434"/>
<rect width="4" height="10" transform="matrix(0.707107 -0.707107 -0.707107 -0.707107 21.1213 63.9498)" fill="#C83434"/>
<rect width="4" height="10" transform="matrix(0.707107 -0.707107 -0.707107 -0.707107 41.1213 63.9498)" fill="#C83434"/>
<rect width="4" height="10" transform="matrix(0.707107 -0.707107 -0.707107 -0.707107 61.1213 63.9498)" fill="#C83434"/>
<rect width="4" height="10" transform="matrix(-0.707107 -0.707107 -0.707107 0.707107 93.9497 16.8787)" fill="#C83434"/>
<rect width="4" height="10" transform="matrix(-0.707107 -0.707107 -0.707107 0.707107 113.95 16.8787)" fill="#C83434"/>
<rect width="4" height="10" transform="matrix(-0.707107 -0.707107 -0.707107 0.707107 133.95 16.8787)" fill="#C83434"/>
<rect width="4" height="10" transform="matrix(-0.707107 -0.707107 -0.707107 0.707107 93.9497 36.8787)" fill="#C83434"/>
<rect width="4" height="10" transform="matrix(-0.707107 -0.707107 -0.707107 0.707107 113.95 36.8787)" fill="#C83434"/>
<rect width="4" height="10" transform="matrix(-0.707107 -0.707107 -0.707107 0.707107 133.95 36.8787)" fill="#C83434"/>
<rect width="4" height="10" transform="matrix(-0.707107 -0.707107 -0.707107 0.707107 93.9497 56.8787)" fill="#C83434"/>
<rect width="4" height="10" transform="matrix(-0.707107 -0.707107 -0.707107 0.707107 113.95 56.8787)" fill="#C83434"/>
<rect width="4" height="10" transform="matrix(-0.707107 -0.707107 -0.707107 0.707107 133.95 56.8787)" fill="#C83434"/>
<rect width="4" height="10" transform="matrix(0.707107 -0.707107 -0.707107 -0.707107 91.1213 93.9498)" fill="#C83434"/>
<rect width="4" height="10" transform="matrix(0.707107 -0.707107 -0.707107 -0.707107 111.121 93.9498)" fill="#C83434"/>
<rect width="4" height="10" transform="matrix(0.707107 -0.707107 -0.707107 -0.707107 131.121 93.9498)" fill="#C83434"/>
<rect width="4" height="10" transform="matrix(0.707107 -0.707107 -0.707107 -0.707107 91.1213 113.95)" fill="#C83434"/>
<rect width="4" height="10" transform="matrix(0.707107 -0.707107 -0.707107 -0.707107 111.121 113.95)" fill="#C83434"/>
<rect width="4" height="10" transform="matrix(0.707107 -0.707107 -0.707107 -0.707107 131.121 113.95)" fill="#C83434"/>
<rect width="4" height="10" transform="matrix(0.707107 -0.707107 -0.707107 -0.707107 91.1213 133.95)" fill="#C83434"/>
<rect width="4" height="10" transform="matrix(0.707107 -0.707107 -0.707107 -0.707107 111.121 133.95)" fill="#C83434"/>
<rect width="4" height="10" transform="matrix(0.707107 -0.707107 -0.707107 -0.707107 131.121 133.95)" fill="#C83434"/>
<rect width="4" height="10" transform="matrix(-0.707107 -0.707107 -0.707107 0.707107 23.9497 86.8787)" fill="#C83434"/>
<rect width="4" height="10" transform="matrix(-0.707107 -0.707107 -0.707107 0.707107 43.9497 86.8787)" fill="#C83434"/>
<rect width="4" height="10" transform="matrix(-0.707107 -0.707107 -0.707107 0.707107 63.9497 86.8787)" fill="#C83434"/>
<rect width="4" height="10" transform="matrix(-0.707107 -0.707107 -0.707107 0.707107 23.9497 106.879)" fill="#C83434"/>
<rect width="4" height="10" transform="matrix(-0.707107 -0.707107 -0.707107 0.707107 43.9497 106.879)" fill="#C83434"/>
<rect width="4" height="10" transform="matrix(-0.707107 -0.707107 -0.707107 0.707107 63.9497 106.879)" fill="#C83434"/>
<rect width="4" height="10" transform="matrix(-0.707107 -0.707107 -0.707107 0.707107 23.9497 126.879)" fill="#C83434"/>
<rect width="4" height="10" transform="matrix(-0.707107 -0.707107 -0.707107 0.707107 43.9497 126.879)" fill="#C83434"/>
<rect width="4" height="10" transform="matrix(-0.707107 -0.707107 -0.707107 0.707107 63.9497 126.879)" fill="#C83434"/>
<circle cx="14" cy="14" r="5" fill="#57ACDC"/>
<circle cx="14" cy="14" r="3" fill="#496989"/>
<circle cx="34" cy="14" r="5" fill="#57ACDC"/>
<circle cx="34" cy="14" r="3" fill="#496989"/>
<circle cx="54" cy="14" r="5" fill="#57ACDC"/>
<circle cx="54" cy="14" r="3" fill="#496989"/>
<circle cx="14" cy="34" r="5" fill="#57ACDC"/>
<circle cx="14" cy="34" r="3" fill="#496989"/>
<circle cx="34" cy="34" r="5" fill="#57ACDC"/>
<circle cx="34" cy="34" r="3" fill="#496989"/>
<circle cx="54" cy="34" r="5" fill="#57ACDC"/>
<circle cx="54" cy="34" r="3" fill="#496989"/>
<circle cx="14" cy="54" r="5" fill="#57ACDC"/>
<circle cx="14" cy="54" r="3" fill="#496989"/>
<circle cx="34" cy="54" r="5" fill="#57ACDC"/>
<circle cx="34" cy="54" r="3" fill="#496989"/>
<circle cx="54" cy="54" r="5" fill="#57ACDC"/>
<circle cx="54" cy="54" r="3" fill="#496989"/>
<circle cx="14" cy="94" r="5" fill="#57ACDC"/>
<circle cx="14" cy="94" r="3" fill="#496989"/>
<circle cx="34" cy="94" r="5" fill="#57ACDC"/>
<circle cx="34" cy="94" r="3" fill="#496989"/>
<circle cx="54" cy="94" r="5" fill="#57ACDC"/>
<circle cx="54" cy="94" r="3" fill="#496989"/>
<circle cx="14" cy="114" r="5" fill="#57ACDC"/>
<circle cx="14" cy="114" r="3" fill="#496989"/>
<circle cx="34" cy="114" r="5" fill="#57ACDC"/>
<circle cx="34" cy="114" r="3" fill="#496989"/>
<circle cx="54" cy="114" r="5" fill="#57ACDC"/>
<circle cx="54" cy="114" r="3" fill="#496989"/>
<circle cx="14" cy="134" r="5" fill="#57ACDC"/>
<circle cx="14" cy="134" r="3" fill="#496989"/>
<circle cx="34" cy="134" r="5" fill="#57ACDC"/>
<circle cx="34" cy="134" r="3" fill="#496989"/>
<circle cx="54" cy="134" r="5" fill="#57ACDC"/>
<circle cx="54" cy="134" r="3" fill="#496989"/>
<circle cx="94" cy="134" r="5" fill="#57ACDC"/>
<circle cx="94" cy="134" r="3" fill="#496989"/>
<circle cx="114" cy="134" r="5" fill="#57ACDC"/>
<circle cx="114" cy="134" r="3" fill="#496989"/>
<circle cx="134" cy="134" r="5" fill="#57ACDC"/>
<circle cx="134" cy="134" r="3" fill="#496989"/>
<circle cx="94" cy="114" r="5" fill="#57ACDC"/>
<circle cx="94" cy="114" r="3" fill="#496989"/>
<circle cx="114" cy="114" r="5" fill="#57ACDC"/>
<circle cx="114" cy="114" r="3" fill="#496989"/>
<circle cx="134" cy="114" r="5" fill="#57ACDC"/>
<circle cx="134" cy="114" r="3" fill="#496989"/>
<circle cx="94" cy="94" r="5" fill="#57ACDC"/>
<circle cx="94" cy="94" r="3" fill="#496989"/>
<circle cx="114" cy="94" r="5" fill="#57ACDC"/>
<circle cx="114" cy="94" r="3" fill="#496989"/>
<circle cx="134" cy="94" r="5" fill="#57ACDC"/>
<circle cx="134" cy="94" r="3" fill="#496989"/>
<circle cx="94" cy="54" r="5" fill="#57ACDC"/>
<circle cx="94" cy="54" r="3" fill="#496989"/>
<circle cx="114" cy="54" r="5" fill="#57ACDC"/>
<circle cx="114" cy="54" r="3" fill="#496989"/>
<circle cx="134" cy="54" r="5" fill="#57ACDC"/>
<circle cx="134" cy="54" r="3" fill="#496989"/>
<circle cx="94" cy="34" r="5" fill="#57ACDC"/>
<circle cx="94" cy="34" r="3" fill="#496989"/>
<circle cx="114" cy="34" r="5" fill="#57ACDC"/>
<circle cx="114" cy="34" r="3" fill="#496989"/>
<circle cx="134" cy="34" r="5" fill="#57ACDC"/>
<circle cx="134" cy="34" r="3" fill="#496989"/>
<circle cx="94" cy="14" r="5" fill="#57ACDC"/>
<circle cx="94" cy="14" r="3" fill="#496989"/>
<circle cx="114" cy="14" r="5" fill="#57ACDC"/>
<circle cx="114" cy="14" r="3" fill="#496989"/>
<circle cx="134" cy="14" r="5" fill="#57ACDC"/>
<circle cx="134" cy="14" r="3" fill="#496989"/>
<rect width="4" height="148" fill="#F5B041"/>
<rect x="144" width="4" height="148" fill="#F5B041"/>
<rect y="4" width="4" height="148" transform="rotate(-90 0 4)" fill="#F5B041"/>
<rect width="4" height="148" transform="matrix(0 1 1 0 0 144)" fill="#F5B041"/>
</svg>
