<svg width="138" height="138" viewBox="0 0 138 138" fill="none" xmlns="http://www.w3.org/2000/svg">
<circle cx="84" cy="84" r="4" transform="rotate(-90 84 84)" fill="#C83434"/>
<circle cx="84" cy="64" r="4" transform="rotate(-90 84 64)" fill="#C83434"/>
<circle cx="84" cy="44" r="4" transform="rotate(-90 84 44)" fill="#C83434"/>
<circle cx="84" cy="24" r="4" transform="rotate(-90 84 24)" fill="#C83434"/>
<circle cx="84" cy="104" r="4" transform="rotate(-90 84 104)" fill="#C83434"/>
<circle cx="84" cy="124" r="4" transform="rotate(-90 84 124)" fill="#C83434"/>
<circle cx="64" cy="84" r="4" transform="rotate(-90 64 84)" fill="#C83434"/>
<circle cx="64" cy="64" r="4" transform="rotate(-90 64 64)" fill="#C83434"/>
<circle cx="64" cy="44" r="4" transform="rotate(-90 64 44)" fill="#C83434"/>
<circle cx="64" cy="24" r="4" transform="rotate(-90 64 24)" fill="#C83434"/>
<circle cx="64" cy="104" r="4" transform="rotate(-90 64 104)" fill="#C83434"/>
<circle cx="64" cy="124" r="4" transform="rotate(-90 64 124)" fill="#C83434"/>
<circle cx="44" cy="84" r="4" transform="rotate(-90 44 84)" fill="#C83434"/>
<circle cx="44" cy="64" r="4" transform="rotate(-90 44 64)" fill="#C83434"/>
<circle cx="44" cy="44" r="4" transform="rotate(-90 44 44)" fill="#C83434"/>
<circle cx="44" cy="24" r="4" transform="rotate(-90 44 24)" fill="#C83434"/>
<circle cx="44" cy="104" r="4" transform="rotate(-90 44 104)" fill="#C83434"/>
<circle cx="44" cy="124" r="4" transform="rotate(-90 44 124)" fill="#C83434"/>
<circle cx="24" cy="84" r="4" transform="rotate(-90 24 84)" fill="#C83434"/>
<circle cx="24" cy="64" r="4" transform="rotate(-90 24 64)" fill="#C83434"/>
<circle cx="24" cy="44" r="4" transform="rotate(-90 24 44)" fill="#C83434"/>
<circle cx="24" cy="24" r="4" transform="rotate(-90 24 24)" fill="#C83434"/>
<circle cx="24" cy="104" r="4" transform="rotate(-90 24 104)" fill="#C83434"/>
<circle cx="24" cy="124" r="4" transform="rotate(-90 24 124)" fill="#C83434"/>
<circle cx="104" cy="84" r="4" transform="rotate(-90 104 84)" fill="#C83434"/>
<circle cx="104" cy="64" r="4" transform="rotate(-90 104 64)" fill="#C83434"/>
<circle cx="104" cy="44" r="4" transform="rotate(-90 104 44)" fill="#C83434"/>
<circle cx="104" cy="24" r="4" transform="rotate(-90 104 24)" fill="#C83434"/>
<circle cx="104" cy="104" r="4" transform="rotate(-90 104 104)" fill="#C83434"/>
<circle cx="104" cy="124" r="4" transform="rotate(-90 104 124)" fill="#C83434"/>
<circle cx="124" cy="84" r="4" transform="rotate(-90 124 84)" fill="#C83434"/>
<circle cx="124" cy="64" r="4" transform="rotate(-90 124 64)" fill="#C83434"/>
<circle cx="124" cy="44" r="4" transform="rotate(-90 124 44)" fill="#C83434"/>
<circle cx="124" cy="24" r="4" transform="rotate(-90 124 24)" fill="#C83434"/>
<circle cx="124" cy="104" r="4" transform="rotate(-90 124 104)" fill="#C83434"/>
<circle cx="124" cy="124" r="4" transform="rotate(-90 124 124)" fill="#C83434"/>
<rect width="4" height="10" transform="matrix(-0.707107 0.707107 0.707107 0.707107 16.8787 114.05)" fill="#C83434"/>
<rect width="4" height="10" transform="matrix(-0.707107 0.707107 0.707107 0.707107 16.8787 94.0503)" fill="#C83434"/>
<rect width="4" height="10" transform="matrix(-0.707107 0.707107 0.707107 0.707107 16.8787 74.0503)" fill="#C83434"/>
<rect width="4" height="10" transform="matrix(-0.707107 0.707107 0.707107 0.707107 36.8787 114.05)" fill="#C83434"/>
<rect width="4" height="10" transform="matrix(-0.707107 0.707107 0.707107 0.707107 36.8787 94.0503)" fill="#C83434"/>
<rect width="4" height="10" transform="matrix(-0.707107 0.707107 0.707107 0.707107 36.8787 74.0503)" fill="#C83434"/>
<rect width="4" height="10" transform="matrix(-0.707107 0.707107 0.707107 0.707107 56.8787 114.05)" fill="#C83434"/>
<rect width="4" height="10" transform="matrix(-0.707107 0.707107 0.707107 0.707107 56.8787 94.0503)" fill="#C83434"/>
<rect width="4" height="10" transform="matrix(-0.707107 0.707107 0.707107 0.707107 56.8787 74.0503)" fill="#C83434"/>
<rect width="4" height="10" transform="matrix(-0.707107 0.707107 0.707107 0.707107 16.8787 54.0503)" fill="#C83434"/>
<rect width="4" height="10" transform="matrix(-0.707107 0.707107 0.707107 0.707107 16.8787 34.0503)" fill="#C83434"/>
<rect width="4" height="10" transform="matrix(-0.707107 0.707107 0.707107 0.707107 16.8787 14.0503)" fill="#C83434"/>
<rect width="4" height="10" transform="matrix(-0.707107 0.707107 0.707107 0.707107 36.8787 54.0503)" fill="#C83434"/>
<rect width="4" height="10" transform="matrix(-0.707107 0.707107 0.707107 0.707107 36.8787 34.0503)" fill="#C83434"/>
<rect width="4" height="10" transform="matrix(-0.707107 0.707107 0.707107 0.707107 36.8787 14.0503)" fill="#C83434"/>
<rect width="4" height="10" transform="matrix(-0.707107 0.707107 0.707107 0.707107 56.8787 54.0503)" fill="#C83434"/>
<rect width="4" height="10" transform="matrix(-0.707107 0.707107 0.707107 0.707107 56.8787 34.0503)" fill="#C83434"/>
<rect width="4" height="10" transform="matrix(-0.707107 0.707107 0.707107 0.707107 56.8787 14.0503)" fill="#C83434"/>
<rect width="4" height="10" transform="matrix(-0.707107 0.707107 0.707107 0.707107 76.8787 54.0503)" fill="#C83434"/>
<rect width="4" height="10" transform="matrix(-0.707107 0.707107 0.707107 0.707107 76.8787 34.0503)" fill="#C83434"/>
<rect width="4" height="10" transform="matrix(-0.707107 0.707107 0.707107 0.707107 76.8787 14.0503)" fill="#C83434"/>
<rect width="4" height="10" transform="matrix(-0.707107 0.707107 0.707107 0.707107 96.8787 54.0503)" fill="#C83434"/>
<rect width="4" height="10" transform="matrix(-0.707107 0.707107 0.707107 0.707107 96.8787 34.0503)" fill="#C83434"/>
<rect width="4" height="10" transform="matrix(-0.707107 0.707107 0.707107 0.707107 96.8787 14.0503)" fill="#C83434"/>
<rect width="4" height="10" transform="matrix(-0.707107 0.707107 0.707107 0.707107 116.879 54.0503)" fill="#C83434"/>
<rect width="4" height="10" transform="matrix(-0.707107 0.707107 0.707107 0.707107 116.879 34.0503)" fill="#C83434"/>
<rect width="4" height="10" transform="matrix(-0.707107 0.707107 0.707107 0.707107 116.879 14.0503)" fill="#C83434"/>
<rect width="4" height="10" transform="matrix(-0.707107 0.707107 0.707107 0.707107 76.8787 114.05)" fill="#C83434"/>
<rect width="4" height="10" transform="matrix(-0.707107 0.707107 0.707107 0.707107 76.8787 94.0503)" fill="#C83434"/>
<rect width="4" height="10" transform="matrix(-0.707107 0.707107 0.707107 0.707107 76.8787 74.0503)" fill="#C83434"/>
<rect width="4" height="10" transform="matrix(-0.707107 0.707107 0.707107 0.707107 96.8787 114.05)" fill="#C83434"/>
<rect width="4" height="10" transform="matrix(-0.707107 0.707107 0.707107 0.707107 96.8787 94.0503)" fill="#C83434"/>
<rect width="4" height="10" transform="matrix(-0.707107 0.707107 0.707107 0.707107 96.8787 74.0503)" fill="#C83434"/>
<rect width="4" height="10" transform="matrix(-0.707107 0.707107 0.707107 0.707107 116.879 114.05)" fill="#C83434"/>
<rect width="4" height="10" transform="matrix(-0.707107 0.707107 0.707107 0.707107 116.879 94.0503)" fill="#C83434"/>
<rect width="4" height="10" transform="matrix(-0.707107 0.707107 0.707107 0.707107 116.879 74.0503)" fill="#C83434"/>
<circle cx="14" cy="114" r="5" transform="rotate(-90 14 114)" fill="#57ACDC"/>
<circle cx="14" cy="114" r="3" transform="rotate(-90 14 114)" fill="#496989"/>
<circle cx="14" cy="94" r="5" transform="rotate(-90 14 94)" fill="#57ACDC"/>
<circle cx="14" cy="94" r="3" transform="rotate(-90 14 94)" fill="#496989"/>
<circle cx="34" cy="114" r="5" transform="rotate(-90 34 114)" fill="#57ACDC"/>
<circle cx="34" cy="114" r="3" transform="rotate(-90 34 114)" fill="#496989"/>
<circle cx="34" cy="94" r="5" transform="rotate(-90 34 94)" fill="#57ACDC"/>
<circle cx="34" cy="94" r="3" transform="rotate(-90 34 94)" fill="#496989"/>
<circle cx="54" cy="114" r="5" transform="rotate(-90 54 114)" fill="#57ACDC"/>
<circle cx="54" cy="114" r="3" transform="rotate(-90 54 114)" fill="#496989"/>
<circle cx="54" cy="94" r="5" transform="rotate(-90 54 94)" fill="#57ACDC"/>
<circle cx="54" cy="94" r="3" transform="rotate(-90 54 94)" fill="#496989"/>
<circle cx="94" cy="114" r="5" transform="rotate(-90 94 114)" fill="#57ACDC"/>
<circle cx="94" cy="114" r="3" transform="rotate(-90 94 114)" fill="#496989"/>
<circle cx="94" cy="94" r="5" transform="rotate(-90 94 94)" fill="#57ACDC"/>
<circle cx="94" cy="94" r="3" transform="rotate(-90 94 94)" fill="#496989"/>
<circle cx="114" cy="114" r="5" transform="rotate(-90 114 114)" fill="#57ACDC"/>
<circle cx="114" cy="114" r="3" transform="rotate(-90 114 114)" fill="#496989"/>
<circle cx="114" cy="94" r="5" transform="rotate(-90 114 94)" fill="#57ACDC"/>
<circle cx="114" cy="94" r="3" transform="rotate(-90 114 94)" fill="#496989"/>
<circle cx="114" cy="54" r="5" transform="rotate(-90 114 54)" fill="#57ACDC"/>
<circle cx="114" cy="54" r="3" transform="rotate(-90 114 54)" fill="#496989"/>
<circle cx="114" cy="34" r="5" transform="rotate(-90 114 34)" fill="#57ACDC"/>
<circle cx="114" cy="34" r="3" transform="rotate(-90 114 34)" fill="#496989"/>
<circle cx="114" cy="14" r="5" transform="rotate(-90 114 14)" fill="#57ACDC"/>
<circle cx="114" cy="14" r="3" transform="rotate(-90 114 14)" fill="#496989"/>
<circle cx="94" cy="54" r="5" transform="rotate(-90 94 54)" fill="#57ACDC"/>
<circle cx="94" cy="54" r="3" transform="rotate(-90 94 54)" fill="#496989"/>
<circle cx="94" cy="34" r="5" transform="rotate(-90 94 34)" fill="#57ACDC"/>
<circle cx="94" cy="34" r="3" transform="rotate(-90 94 34)" fill="#496989"/>
<circle cx="94" cy="14" r="5" transform="rotate(-90 94 14)" fill="#57ACDC"/>
<circle cx="94" cy="14" r="3" transform="rotate(-90 94 14)" fill="#496989"/>
<circle cx="54" cy="54" r="5" transform="rotate(-90 54 54)" fill="#57ACDC"/>
<circle cx="54" cy="54" r="3" transform="rotate(-90 54 54)" fill="#496989"/>
<circle cx="74" cy="54" r="5" transform="rotate(-90 74 54)" fill="#57ACDC"/>
<circle cx="74" cy="54" r="3" transform="rotate(-90 74 54)" fill="#496989"/>
<circle cx="74" cy="14" r="5" transform="rotate(-90 74 14)" fill="#57ACDC"/>
<circle cx="74" cy="14" r="3" transform="rotate(-90 74 14)" fill="#496989"/>
<circle cx="74" cy="74" r="5" transform="rotate(-90 74 74)" fill="#57ACDC"/>
<circle cx="74" cy="74" r="3" transform="rotate(-90 74 74)" fill="#496989"/>
<circle cx="74" cy="94" r="5" transform="rotate(-90 74 94)" fill="#57ACDC"/>
<circle cx="74" cy="94" r="3" transform="rotate(-90 74 94)" fill="#496989"/>
<circle cx="74" cy="114" r="5" transform="rotate(-90 74 114)" fill="#57ACDC"/>
<circle cx="74" cy="114" r="3" transform="rotate(-90 74 114)" fill="#496989"/>
<circle cx="94" cy="74" r="5" transform="rotate(-90 94 74)" fill="#57ACDC"/>
<circle cx="94" cy="74" r="3" transform="rotate(-90 94 74)" fill="#496989"/>
<circle cx="114" cy="74" r="5" transform="rotate(-90 114 74)" fill="#57ACDC"/>
<circle cx="114" cy="74" r="3" transform="rotate(-90 114 74)" fill="#496989"/>
<circle cx="54" cy="34" r="5" transform="rotate(-90 54 34)" fill="#57ACDC"/>
<circle cx="54" cy="34" r="3" transform="rotate(-90 54 34)" fill="#496989"/>
<circle cx="74" cy="34" r="5" transform="rotate(-90 74 34)" fill="#57ACDC"/>
<circle cx="74" cy="34" r="3" transform="rotate(-90 74 34)" fill="#496989"/>
<circle cx="54" cy="14" r="5" transform="rotate(-90 54 14)" fill="#57ACDC"/>
<circle cx="54" cy="14" r="3" transform="rotate(-90 54 14)" fill="#496989"/>
<circle cx="34" cy="54" r="5" transform="rotate(-90 34 54)" fill="#57ACDC"/>
<circle cx="34" cy="54" r="3" transform="rotate(-90 34 54)" fill="#496989"/>
<circle cx="34" cy="34" r="5" transform="rotate(-90 34 34)" fill="#57ACDC"/>
<circle cx="34" cy="34" r="3" transform="rotate(-90 34 34)" fill="#496989"/>
<circle cx="34" cy="14" r="5" transform="rotate(-90 34 14)" fill="#57ACDC"/>
<circle cx="34" cy="14" r="3" transform="rotate(-90 34 14)" fill="#496989"/>
<circle cx="14" cy="54" r="5" transform="rotate(-90 14 54)" fill="#57ACDC"/>
<circle cx="14" cy="54" r="3" transform="rotate(-90 14 54)" fill="#496989"/>
<circle cx="14" cy="34" r="5" transform="rotate(-90 14 34)" fill="#57ACDC"/>
<circle cx="14" cy="34" r="3" transform="rotate(-90 14 34)" fill="#496989"/>
<circle cx="14" cy="14" r="5" transform="rotate(-90 14 14)" fill="#57ACDC"/>
<circle cx="14" cy="14" r="3" transform="rotate(-90 14 14)" fill="#496989"/>
<circle cx="14" cy="74" r="5" transform="rotate(-90 14 74)" fill="#57ACDC"/>
<circle cx="14" cy="74" r="3" transform="rotate(-90 14 74)" fill="#496989"/>
<circle cx="34" cy="74" r="5" transform="rotate(-90 34 74)" fill="#57ACDC"/>
<circle cx="34" cy="74" r="3" transform="rotate(-90 34 74)" fill="#496989"/>
<circle cx="54" cy="74" r="5" transform="rotate(-90 54 74)" fill="#57ACDC"/>
<circle cx="54" cy="74" r="3" transform="rotate(-90 54 74)" fill="#496989"/>
<rect y="138" width="4" height="138" transform="rotate(-90 0 138)" fill="#F5B041"/>
<rect y="4" width="4" height="138" transform="rotate(-90 0 4)" fill="#F5B041"/>
<rect x="4" y="138" width="4" height="138" transform="rotate(180 4 138)" fill="#F5B041"/>
<rect x="138" y="138" width="4" height="138" transform="rotate(180 138 138)" fill="#F5B041"/>
</svg>
