<svg width="138" height="138" viewBox="0 0 138 138" fill="none" xmlns="http://www.w3.org/2000/svg">
<circle cx="54" cy="84" r="4" fill="#C83434"/>
<circle cx="74" cy="84" r="4" fill="#C83434"/>
<circle cx="94" cy="84" r="4" fill="#C83434"/>
<circle cx="114" cy="84" r="4" fill="#C83434"/>
<circle cx="34" cy="84" r="4" fill="#C83434"/>
<circle cx="14" cy="84" r="4" fill="#C83434"/>
<circle cx="54" cy="64" r="4" fill="#C83434"/>
<circle cx="74" cy="64" r="4" fill="#C83434"/>
<circle cx="94" cy="64" r="4" fill="#C83434"/>
<circle cx="114" cy="64" r="4" fill="#C83434"/>
<circle cx="34" cy="64" r="4" fill="#C83434"/>
<circle cx="14" cy="64" r="4" fill="#C83434"/>
<circle cx="54" cy="44" r="4" fill="#C83434"/>
<circle cx="74" cy="44" r="4" fill="#C83434"/>
<circle cx="94" cy="44" r="4" fill="#C83434"/>
<circle cx="114" cy="44" r="4" fill="#C83434"/>
<circle cx="34" cy="44" r="4" fill="#C83434"/>
<circle cx="14" cy="44" r="4" fill="#C83434"/>
<circle cx="54" cy="24" r="4" fill="#C83434"/>
<circle cx="74" cy="24" r="4" fill="#C83434"/>
<circle cx="94" cy="24" r="4" fill="#C83434"/>
<circle cx="114" cy="24" r="4" fill="#C83434"/>
<circle cx="34" cy="24" r="4" fill="#C83434"/>
<circle cx="14" cy="24" r="4" fill="#C83434"/>
<circle cx="54" cy="104" r="4" fill="#C83434"/>
<circle cx="74" cy="104" r="4" fill="#C83434"/>
<circle cx="94" cy="104" r="4" fill="#C83434"/>
<circle cx="114" cy="104" r="4" fill="#C83434"/>
<circle cx="34" cy="104" r="4" fill="#C83434"/>
<circle cx="14" cy="104" r="4" fill="#C83434"/>
<circle cx="54" cy="124" r="4" fill="#C83434"/>
<circle cx="74" cy="124" r="4" fill="#C83434"/>
<circle cx="94" cy="124" r="4" fill="#C83434"/>
<circle cx="114" cy="124" r="4" fill="#C83434"/>
<circle cx="34" cy="124" r="4" fill="#C83434"/>
<circle cx="14" cy="124" r="4" fill="#C83434"/>
<rect width="4" height="10" transform="matrix(-0.707107 -0.707107 -0.707107 0.707107 23.9497 16.8787)" fill="#C83434"/>
<rect width="4" height="10" transform="matrix(-0.707107 -0.707107 -0.707107 0.707107 43.9497 16.8787)" fill="#C83434"/>
<rect width="4" height="10" transform="matrix(-0.707107 -0.707107 -0.707107 0.707107 63.9497 16.8787)" fill="#C83434"/>
<rect width="4" height="10" transform="matrix(-0.707107 -0.707107 -0.707107 0.707107 23.9497 36.8787)" fill="#C83434"/>
<rect width="4" height="10" transform="matrix(-0.707107 -0.707107 -0.707107 0.707107 43.9497 36.8787)" fill="#C83434"/>
<rect width="4" height="10" transform="matrix(-0.707107 -0.707107 -0.707107 0.707107 63.9497 36.8787)" fill="#C83434"/>
<rect width="4" height="10" transform="matrix(-0.707107 -0.707107 -0.707107 0.707107 23.9497 56.8787)" fill="#C83434"/>
<rect width="4" height="10" transform="matrix(-0.707107 -0.707107 -0.707107 0.707107 43.9497 56.8787)" fill="#C83434"/>
<rect width="4" height="10" transform="matrix(-0.707107 -0.707107 -0.707107 0.707107 63.9497 56.8787)" fill="#C83434"/>
<rect width="4" height="10" transform="matrix(-0.707107 -0.707107 -0.707107 0.707107 83.9497 16.8787)" fill="#C83434"/>
<rect width="4" height="10" transform="matrix(-0.707107 -0.707107 -0.707107 0.707107 103.95 16.8787)" fill="#C83434"/>
<rect width="4" height="10" transform="matrix(-0.707107 -0.707107 -0.707107 0.707107 123.95 16.8787)" fill="#C83434"/>
<rect width="4" height="10" transform="matrix(-0.707107 -0.707107 -0.707107 0.707107 83.9497 36.8787)" fill="#C83434"/>
<rect width="4" height="10" transform="matrix(-0.707107 -0.707107 -0.707107 0.707107 103.95 36.8787)" fill="#C83434"/>
<rect width="4" height="10" transform="matrix(-0.707107 -0.707107 -0.707107 0.707107 123.95 36.8787)" fill="#C83434"/>
<rect width="4" height="10" transform="matrix(-0.707107 -0.707107 -0.707107 0.707107 83.9497 56.8787)" fill="#C83434"/>
<rect width="4" height="10" transform="matrix(-0.707107 -0.707107 -0.707107 0.707107 103.95 56.8787)" fill="#C83434"/>
<rect width="4" height="10" transform="matrix(-0.707107 -0.707107 -0.707107 0.707107 123.95 56.8787)" fill="#C83434"/>
<rect width="4" height="10" transform="matrix(-0.707107 -0.707107 -0.707107 0.707107 83.9497 76.8787)" fill="#C83434"/>
<rect width="4" height="10" transform="matrix(-0.707107 -0.707107 -0.707107 0.707107 103.95 76.8787)" fill="#C83434"/>
<rect width="4" height="10" transform="matrix(-0.707107 -0.707107 -0.707107 0.707107 123.95 76.8787)" fill="#C83434"/>
<rect width="4" height="10" transform="matrix(-0.707107 -0.707107 -0.707107 0.707107 83.9497 96.8787)" fill="#C83434"/>
<rect width="4" height="10" transform="matrix(-0.707107 -0.707107 -0.707107 0.707107 103.95 96.8787)" fill="#C83434"/>
<rect width="4" height="10" transform="matrix(-0.707107 -0.707107 -0.707107 0.707107 123.95 96.8787)" fill="#C83434"/>
<rect width="4" height="10" transform="matrix(-0.707107 -0.707107 -0.707107 0.707107 83.9497 116.879)" fill="#C83434"/>
<rect width="4" height="10" transform="matrix(-0.707107 -0.707107 -0.707107 0.707107 103.95 116.879)" fill="#C83434"/>
<rect width="4" height="10" transform="matrix(-0.707107 -0.707107 -0.707107 0.707107 123.95 116.879)" fill="#C83434"/>
<rect width="4" height="10" transform="matrix(-0.707107 -0.707107 -0.707107 0.707107 23.9497 76.8787)" fill="#C83434"/>
<rect width="4" height="10" transform="matrix(-0.707107 -0.707107 -0.707107 0.707107 43.9497 76.8787)" fill="#C83434"/>
<rect width="4" height="10" transform="matrix(-0.707107 -0.707107 -0.707107 0.707107 63.9497 76.8787)" fill="#C83434"/>
<rect width="4" height="10" transform="matrix(-0.707107 -0.707107 -0.707107 0.707107 23.9497 96.8787)" fill="#C83434"/>
<rect width="4" height="10" transform="matrix(-0.707107 -0.707107 -0.707107 0.707107 43.9497 96.8787)" fill="#C83434"/>
<rect width="4" height="10" transform="matrix(-0.707107 -0.707107 -0.707107 0.707107 63.9497 96.8787)" fill="#C83434"/>
<rect width="4" height="10" transform="matrix(-0.707107 -0.707107 -0.707107 0.707107 23.9497 116.879)" fill="#C83434"/>
<rect width="4" height="10" transform="matrix(-0.707107 -0.707107 -0.707107 0.707107 43.9497 116.879)" fill="#C83434"/>
<rect width="4" height="10" transform="matrix(-0.707107 -0.707107 -0.707107 0.707107 63.9497 116.879)" fill="#C83434"/>
<circle cx="24" cy="14" r="5" fill="#57ACDC"/>
<circle cx="24" cy="14" r="3" fill="#496989"/>
<circle cx="44" cy="14" r="5" fill="#57ACDC"/>
<circle cx="44" cy="14" r="3" fill="#496989"/>
<circle cx="24" cy="34" r="5" fill="#57ACDC"/>
<circle cx="24" cy="34" r="3" fill="#496989"/>
<circle cx="44" cy="34" r="5" fill="#57ACDC"/>
<circle cx="44" cy="34" r="3" fill="#496989"/>
<circle cx="24" cy="54" r="5" fill="#57ACDC"/>
<circle cx="24" cy="54" r="3" fill="#496989"/>
<circle cx="44" cy="54" r="5" fill="#57ACDC"/>
<circle cx="44" cy="54" r="3" fill="#496989"/>
<circle cx="24" cy="94" r="5" fill="#57ACDC"/>
<circle cx="24" cy="94" r="3" fill="#496989"/>
<circle cx="44" cy="94" r="5" fill="#57ACDC"/>
<circle cx="44" cy="94" r="3" fill="#496989"/>
<circle cx="24" cy="114" r="5" fill="#57ACDC"/>
<circle cx="24" cy="114" r="3" fill="#496989"/>
<circle cx="44" cy="114" r="5" fill="#57ACDC"/>
<circle cx="44" cy="114" r="3" fill="#496989"/>
<circle cx="84" cy="114" r="5" fill="#57ACDC"/>
<circle cx="84" cy="114" r="3" fill="#496989"/>
<circle cx="104" cy="114" r="5" fill="#57ACDC"/>
<circle cx="104" cy="114" r="3" fill="#496989"/>
<circle cx="124" cy="114" r="5" fill="#57ACDC"/>
<circle cx="124" cy="114" r="3" fill="#496989"/>
<circle cx="84" cy="94" r="5" fill="#57ACDC"/>
<circle cx="84" cy="94" r="3" fill="#496989"/>
<circle cx="104" cy="94" r="5" fill="#57ACDC"/>
<circle cx="104" cy="94" r="3" fill="#496989"/>
<circle cx="124" cy="94" r="5" fill="#57ACDC"/>
<circle cx="124" cy="94" r="3" fill="#496989"/>
<circle cx="84" cy="54" r="5" fill="#57ACDC"/>
<circle cx="84" cy="54" r="3" fill="#496989"/>
<circle cx="84" cy="74" r="5" fill="#57ACDC"/>
<circle cx="84" cy="74" r="3" fill="#496989"/>
<circle cx="124" cy="74" r="5" fill="#57ACDC"/>
<circle cx="124" cy="74" r="3" fill="#496989"/>
<circle cx="64" cy="74" r="5" fill="#57ACDC"/>
<circle cx="64" cy="74" r="3" fill="#496989"/>
<circle cx="44" cy="74" r="5" fill="#57ACDC"/>
<circle cx="44" cy="74" r="3" fill="#496989"/>
<circle cx="24" cy="74" r="5" fill="#57ACDC"/>
<circle cx="24" cy="74" r="3" fill="#496989"/>
<circle cx="64" cy="94" r="5" fill="#57ACDC"/>
<circle cx="64" cy="94" r="3" fill="#496989"/>
<circle cx="64" cy="114" r="5" fill="#57ACDC"/>
<circle cx="64" cy="114" r="3" fill="#496989"/>
<circle cx="104" cy="54" r="5" fill="#57ACDC"/>
<circle cx="104" cy="54" r="3" fill="#496989"/>
<circle cx="104" cy="74" r="5" fill="#57ACDC"/>
<circle cx="104" cy="74" r="3" fill="#496989"/>
<circle cx="124" cy="54" r="5" fill="#57ACDC"/>
<circle cx="124" cy="54" r="3" fill="#496989"/>
<circle cx="84" cy="34" r="5" fill="#57ACDC"/>
<circle cx="84" cy="34" r="3" fill="#496989"/>
<circle cx="104" cy="34" r="5" fill="#57ACDC"/>
<circle cx="104" cy="34" r="3" fill="#496989"/>
<circle cx="124" cy="34" r="5" fill="#57ACDC"/>
<circle cx="124" cy="34" r="3" fill="#496989"/>
<circle cx="84" cy="14" r="5" fill="#57ACDC"/>
<circle cx="84" cy="14" r="3" fill="#496989"/>
<circle cx="104" cy="14" r="5" fill="#57ACDC"/>
<circle cx="104" cy="14" r="3" fill="#496989"/>
<circle cx="124" cy="14" r="5" fill="#57ACDC"/>
<circle cx="124" cy="14" r="3" fill="#496989"/>
<circle cx="64" cy="14" r="5" fill="#57ACDC"/>
<circle cx="64" cy="14" r="3" fill="#496989"/>
<circle cx="64" cy="34" r="5" fill="#57ACDC"/>
<circle cx="64" cy="34" r="3" fill="#496989"/>
<circle cx="64" cy="54" r="5" fill="#57ACDC"/>
<circle cx="64" cy="54" r="3" fill="#496989"/>
<rect width="4" height="138" fill="#F5B041"/>
<rect x="134" width="4" height="138" fill="#F5B041"/>
<rect y="4" width="4" height="138" transform="rotate(-90 0 4)" fill="#F5B041"/>
<rect y="138" width="4" height="138" transform="rotate(-90 0 138)" fill="#F5B041"/>
</svg>
